<svg width="200" height="200" viewBox="0 0 200 200" xmlns="http://www.w3.org/2000/svg">
  <!-- Gradient definition -->
  <defs>
    <linearGradient id="diagonaleGradient" x1="0%" y1="0%" x2="100%" y2="100%">
      <stop offset="0%" style="stop-color:hsl(229, 73%, 69%);stop-opacity:1" />
      <stop offset="100%" style="stop-color:hsl(270, 50%, 65%);stop-opacity:1" />
    </linearGradient>
  </defs>
  
  <!-- Logo DIAGONALE - testa di serpente fedele all'originale -->
  <g transform="translate(100, 100)">
    <!-- Contorno principale della testa - forma più fedele all'originale -->
    <path d="M-60 -40 Q-75 -20 -70 0 Q-65 20 -50 35 Q-35 50 -15 55 Q0 60 15 55 Q35 50 50 35 Q65 20 70 0 Q75 -20 60 -40 Q50 -60 25 -65 Q0 -70 -25 -65 Q-50 -60 -60 -40 Z" 
          fill="url(#diagonaleGradient)" 
          stroke="rgba(255,255,255,0.2)" 
          stroke-width="2"/>
    
    <!-- Occhi con spirali - più fedeli all'originale -->
    <g transform="translate(-28, -20)">
      <!-- Occhio sinistro -->
      <circle cx="0" cy="0" r="18" fill="rgba(255,255,255,0.95)"/>
      <!-- Spirale dell'occhio -->
      <path d="M0 0 Q-12 -12 -8 -4 Q-2 0 4 -8 Q12 -12 8 -4 Q2 0 -4 8 Q-12 12 -8 4 Q-2 0 4 8 Q12 12 8 4 Q2 0 -2 -4 Q-6 -6 -4 -2 Q0 0 2 -4 Q6 -6 4 -2 Q0 0 -2 4 Q-6 6 -4 2 Q0 0 0 0" 
            fill="url(#diagonaleGradient)" stroke="none"/>
    </g>
    
    <g transform="translate(28, -20)">
      <!-- Occhio destro -->
      <circle cx="0" cy="0" r="18" fill="rgba(255,255,255,0.95)"/>
      <!-- Spirale dell'occhio -->
      <path d="M0 0 Q12 -12 8 -4 Q2 0 -4 -8 Q-12 -12 -8 -4 Q-2 0 4 8 Q12 12 8 4 Q2 0 -4 8 Q-12 12 -8 4 Q-2 0 2 -4 Q6 -6 4 -2 Q0 0 -2 -4 Q-6 -6 -4 -2 Q0 0 2 4 Q6 6 4 2 Q0 0 0 0" 
            fill="url(#diagonaleGradient)" stroke="none"/>
    </g>
    
    <!-- Narici -->
    <ellipse cx="-10" cy="8" rx="3" ry="6" fill="rgba(255,255,255,0.8)"/>
    <ellipse cx="10" cy="8" rx="3" ry="6" fill="rgba(255,255,255,0.8)"/>
    
    <!-- Bocca sorridente - più fedele all'originale -->
    <path d="M-45 20 Q-35 35 -20 30 Q-10 35 0 32 Q10 35 20 30 Q35 35 45 20" 
          fill="none" 
          stroke="rgba(255,255,255,0.9)" 
          stroke-width="4" 
          stroke-linecap="round"/>
    
    <!-- Lingua biforcuta -->
    <path d="M0 35 Q-8 50 -12 58 M0 35 Q8 50 12 58" 
          fill="none" 
          stroke="rgba(255,255,255,0.8)" 
          stroke-width="3" 
          stroke-linecap="round"/>
  </g>
</svg>